<?xml version="1.0" encoding="utf-8"?>
<!-- Generator: Adobe Illustrator 27.0.0, SVG Export Plug-In . SVG Version: 6.00 Build 0)  -->
<svg version="1.1" id="圖層_1" xmlns="http://www.w3.org/2000/svg" xmlns:xlink="http://www.w3.org/1999/xlink" x="0px" y="0px"
	 viewBox="0 0 512 512" style="enable-background:new 0 0 512 512;" xml:space="preserve">
<style type="text/css">
	.st0{stroke:#066DA5;stroke-width:38;}
	.st1{fill:#066DA5;}
</style>
<path class="st0" d="M296,226h42 M246,226h42 M197,226h42 M148,226h41 M98,226h42 M148,180h41 M197,180h42 M246,180h42 M246,134h42"
	/>
<path class="st1" d="M472,228c0,0-18-17-55-11c-4-29-35-46-35-46s-29,35-8,74c-6,3-16,7-31,7H68c-5,19-5,145,133,145
	c99,0,173-46,208-130C461,271,472,228,472,228"/>
</svg>
